<svg width="26" height="24" viewBox="0 0 26 24" fill="none" xmlns="http://www.w3.org/2000/svg">
<path fill-rule="evenodd" clip-rule="evenodd" d="M21.3355 3H4.65944C4.0862 3 3.61719 3.45 3.61719 4V20C3.61719 20.55 4.0862 21 4.65944 21H21.3355C21.9087 21 22.3778 20.55 22.3778 20V4C22.3778 3.45 21.9087 3 21.3355 3ZM9.87071 7H7.7862V9H9.87071V7ZM17.1665 9H12.9975C12.4242 9 11.9552 8.55 11.9552 8C11.9552 7.45 12.4242 7 12.9975 7H17.1665C17.7397 7 18.2087 7.45 18.2087 8C18.2087 8.55 17.7397 9 17.1665 9ZM17.1665 13H12.9975C12.4242 13 11.9552 12.55 11.9552 12C11.9552 11.45 12.4242 11 12.9975 11H17.1665C17.7397 11 18.2087 11.45 18.2087 12C18.2087 12.55 17.7397 13 17.1665 13ZM12.9975 17H17.1665C17.7397 17 18.2087 16.55 18.2087 16C18.2087 15.45 17.7397 15 17.1665 15H12.9975C12.4242 15 11.9552 15.45 11.9552 16C11.9552 16.55 12.4242 17 12.9975 17ZM7.7862 11H9.87071V13H7.7862V11ZM9.87071 15H7.7862V17H9.87071V15ZM5.70169 19H20.2932V5H5.70169V19Z" fill="#4594BB"/>
</svg>
